<svg width="120" height="120" viewBox="0 0 120 120" fill="none" xmlns="http://www.w3.org/2000/svg">
<g clip-path="url(#clip0_381_14)">
<rect width="120" height="120" fill="none"/>
<path fill-rule="evenodd" clip-rule="evenodd" d="M13.9439 24.5486C13.9566 21.8929 15.8704 19.5312 18.4848 18.8313C25.0705 17.0682 36.4306 13.8662 38.7077 13.2588L57.2346 8.23265C60.2412 7.43638 59.313 7.5225 63.3697 8.58742L107.168 19.8337C108.18 20.0938 109.286 20.4126 110.389 20.709C111.906 21.1167 113.332 19.9787 113.332 18.4377L113.333 15.9881C113.333 14.8004 112.473 13.7554 111.301 13.4522C107.908 12.5741 101.744 10.8289 99.8654 10.3155C95.4391 9.10502 90.9251 7.9643 86.5232 6.72169C84.5253 6.15767 70.05 2.19667 63.2343 0.422099C60.8974 -0.186349 58.5397 -0.118684 56.2076 0.507145L32.8848 6.76656C31.3442 7.19971 17.9837 10.8703 10.7211 12.7912C8.09693 13.4853 6.17835 15.8613 6.15945 18.5246C6.07639 30.183 5.85269 58.2798 6.14823 61.137C7.5288 74.4875 12.5305 88.6328 22.2682 92.7042C25.8277 94.1924 28.838 94.0248 32.9322 94.1127C36.9357 94.1985 40.9221 94.2719 44.9277 94.314C54.3305 94.4132 57.9311 94.6027 66.0542 91.3643C74.3689 88.0492 80.9626 81.1471 84.2216 73.5889C85.0022 71.7775 86.9135 66.5815 86.861 64.5748C85.4181 67.5891 85.6987 69.7289 82.2201 75.1217C81.1077 76.8471 79.105 79.1728 77.4633 80.4673C76.5119 81.2175 75.7508 81.8458 74.5628 82.5475C72.4857 83.7746 70.0963 84.8526 67.3935 85.5347C61.4523 87.0333 54.3915 86.5949 48.0077 86.6406C44.6049 86.6652 41.1984 86.681 37.7953 86.6855C34.7323 86.6894 30.8709 86.9973 28.1056 86.1946C23.1155 84.7465 19.5448 80.7166 17.5332 76.3802C13.372 67.4096 13.795 59.3438 13.8226 49.8562L13.9439 24.5486Z" fill="#304FFE"/>
<path fill-rule="evenodd" clip-rule="evenodd" d="M32.3692 55.488C32.3816 54.5514 34.0979 50.5548 34.5796 49.5707C37.2271 44.1629 40.727 39.5737 46.0788 36.3734C49.5692 34.2863 54.0934 32.9057 59.0247 32.7237C64.4816 32.5227 70.2422 32.6486 75.7272 32.6486C81.2927 32.6486 86.8581 32.6682 92.4236 32.6695C95.0118 32.6704 98.0013 32.3899 100.22 33.3242C106.736 36.068 105.512 45.6684 105.423 52.7153C105.241 67.1527 102.961 78.8836 92.9871 89.6395C91.5991 91.1357 90.5087 92.4714 88.9511 93.9451C80.7865 101.663 74.2221 105.281 63.873 110.188C61.6629 111.236 60.4285 112.405 57.6635 111.234C50.9813 108.402 47.4813 106.51 41.3036 102.807C38.2087 100.952 39.3937 100.975 34.8771 100.948C32.7935 100.935 30.7081 100.949 28.6256 100.974C27.6779 100.985 27.3022 101.831 28.0234 102.434C28.4901 102.824 28.9451 103.188 29.1926 103.397C34.7808 108.119 43.8166 113.581 50.3948 116.454C52.7164 117.469 54.874 118.453 57.3073 119.367C59.3503 120.134 58.9466 120.233 61.0555 119.505C73.8342 115.096 85.0481 108.488 94.6191 99.3421C95.0765 98.9052 95.3765 98.5765 95.8083 98.1211C96.2193 97.6883 96.6316 97.3985 97.0267 96.937C101.226 92.022 103.99 88.8029 107.139 82.7058C109.359 78.4076 111.05 73.5969 112.119 68.3753C113.44 61.9264 113.194 48.2128 113.313 40.4852C113.358 37.5135 112.583 35.0249 111.423 32.822C109.33 28.8477 105.588 25.518 99.5369 25.1208C95.6082 24.863 84.6273 25.0577 79.9412 25.0573C67.3113 25.0561 57.25 23.7981 46.7327 31.1364C40.6392 35.3876 36.7366 40.7786 34.1963 47.9183C33.6622 49.4208 32.2832 53.9549 32.3692 55.488Z" fill="#304FFE"/>
<path fill-rule="evenodd" clip-rule="evenodd" d="M59.0761 57.6058C62.5754 56.6404 63.5597 61.7891 60.5422 62.6102C57.0892 63.5496 55.6073 58.5625 59.0761 57.6058ZM66.5455 48.0767C69.0825 47.4737 71.2365 49.2538 71.7109 51.2412C73.0404 56.819 64.5098 58.6577 63.2084 53.2367C62.5547 50.5156 64.4037 48.5864 66.5455 48.0767ZM39.1304 60.975C39.791 71.6572 49.041 80.485 60.7702 79.8416C71.7195 79.2411 80.7111 70.1036 80.0658 58.6199C79.4633 47.9154 70.1192 39.0467 58.3882 39.7293C47.4975 40.3633 38.4198 49.4843 39.1304 60.975Z" fill="#304FFE"/>
</g>
<defs>
<clipPath id="clip0_381_14">
<rect width="120" height="120" fill="white"/>
</clipPath>
</defs>
</svg>
