<?xml version="1.0" encoding="UTF-8"?>
<!DOCTYPE svg PUBLIC "-//W3C//DTD SVG 1.1//EN" "http://www.w3.org/Graphics/SVG/1.1/DTD/svg11.dtd">
<!-- Creator: CorelDRAW 2019 -->
<svg xmlns="http://www.w3.org/2000/svg" xml:space="preserve" width="1882px" height="1269px" version="1.1" style="shape-rendering:geometricPrecision; text-rendering:geometricPrecision; image-rendering:optimizeQuality; fill-rule:evenodd; clip-rule:evenodd"
viewBox="0 0 1882 1268.4"
 xmlns:xlink="http://www.w3.org/1999/xlink"
 xmlns:xodm="http://www.corel.com/coreldraw/odm/2003">
 <defs>
  <style type="text/css">
   <![CDATA[
    .fil0 {fill:black}
   ]]>
  </style>
 </defs>
 <g id="Слой_x0020_1">
  <metadata id="CorelCorpID_0Corel-Layer"/>
  <path id="id2" class="fil0" d="M1534.23 127.9c0,58.89 41.99,66.03 70.97,100.65 59.71,71.34 90.8,121.93 112.53,223.42 31.21,145.75 22.59,308.12 -42.3,437.9l-47.74 76.41c-43.58,55.86 -93.46,64.74 -93.46,125.64 0,31.38 26.62,56.84 52.56,64.46 32.84,9.64 62.23,-6.87 81.65,-25.19 11.66,-11.01 20.03,-16.19 31.13,-27.29 24.92,-24.92 59,-69.76 78.62,-100.32 63.46,-98.83 97.91,-227.47 102.94,-358.95l0 -67.16c-5.54,-146.49 -47.58,-290.82 -126.74,-395.86 -41.56,-55.17 -132.31,-170.9 -201.09,-96.73 -10.39,11.21 -19.07,22.58 -19.07,43.02z"/>
  <path id="id1" class="fil0" d="M1395.47 361.6c0,56.71 80.34,95.43 80.34,248.31 0,187.04 -127.17,212.22 -62.79,292.83 24.98,31.28 74.48,33.58 103.98,7.63 11.44,-10.06 16.4,-20.36 25.62,-32.81 7.91,-10.7 14.35,-23.26 20.66,-34.11 71.19,-122.35 75.67,-297.85 18.53,-427.19 -11.16,-25.27 -22.03,-50.81 -39.19,-74 -29.14,-39.38 -32.85,-50.04 -85.07,-50.04 -28.23,0 -62.08,35.22 -62.08,69.38z"/>
  <path id="speaker" class="fil0" d="M-0.86 472.45l0 206.19c0,69.01 70.59,121.84 137.46,121.84l68.73 0 36.56 260.24c4.44,30.75 17.31,167.94 34.41,187.41 14.23,16.2 25.08,20.98 54,20.98l174.95 0c37.76,0 65.36,-23.34 60.84,-60.6l-38.97 -345.54c44.34,21.27 294.96,117.96 341.43,136.56 58.47,23.41 113.34,45.33 171.83,68.73 29.48,11.81 55.1,22.05 84.79,33.93 15.96,6.38 75.94,32.58 89.26,32.58 32.73,0 53.11,-25.89 53.11,-59.36l0 -1015.35c0,-40.67 -20.1,-59.36 -59.36,-59.36 -11.48,0 -690.52,274.34 -751.13,298.58 -108.6,43.44 -58.53,32.58 -176.74,32.58 -67.05,0 -148.52,-6.87 -193.75,15.56 -45.36,22.5 -87.42,68.19 -87.42,125.03z"/>
 </g>
</svg>
