<svg width="74" height="83" viewBox="0 0 74 83" fill="none" xmlns="http://www.w3.org/2000/svg">
<path fill-rule="evenodd" clip-rule="evenodd" d="M5.47681 16.9795C5.48559 15.1426 6.80504 13.5091 8.60758 13.025C13.1479 11.8055 20.9801 9.59084 22.5499 9.17074L35.323 5.69425C37.3959 5.1435 36.7561 5.20306 39.5527 5.93964L69.7496 13.7183C70.447 13.8982 71.2101 14.1188 71.9702 14.3237C73.0159 14.6057 73.9991 13.8187 73.9994 12.7527L74 11.0585C74.0003 10.2369 73.4075 9.51414 72.5994 9.30439C70.2595 8.69707 66.0096 7.49 64.7147 7.13489C61.6629 6.29765 58.5507 5.50864 55.516 4.64917C54.1384 4.25906 44.1584 1.51937 39.4599 0.291952C37.8488 -0.128892 36.2231 -0.0820898 34.6154 0.350775L18.5355 4.68021C17.4734 4.9798 8.26198 7.5186 3.25493 8.84727C1.44571 9.32736 0.122941 10.9708 0.109866 12.8129C0.0526305 20.8765 -0.10154 40.3102 0.10221 42.2865C1.05398 51.5205 4.50241 61.3044 11.216 64.1205C13.67 65.1498 15.7455 65.0338 18.5681 65.0946C21.3283 65.154 24.0767 65.2048 26.8383 65.2339C33.3209 65.3025 35.803 65.4336 41.4035 63.1936C47.1363 60.9007 51.6822 56.1268 53.9288 50.8991C54.4674 49.6461 55.785 46.0522 55.7487 44.6642C54.7541 46.7491 54.9476 48.2292 52.5495 51.9592C51.7821 53.1526 50.4017 54.7612 49.2699 55.6566C48.614 56.1754 48.089 56.61 47.2699 57.0953C45.8381 57.9441 44.191 58.6897 42.3269 59.1616C38.2312 60.1981 33.3629 59.8948 28.9618 59.9265C26.6158 59.9435 24.2672 59.9544 21.921 59.9575C19.8092 59.9602 17.147 60.1731 15.2405 59.618C11.8001 58.6163 9.33827 55.829 7.95147 52.8296C5.08251 46.625 5.37416 41.0462 5.39315 34.4839L5.47681 16.9795Z" fill="white"/>
<path fill-rule="evenodd" clip-rule="evenodd" d="M18.1803 38.379C18.1888 37.7311 19.3721 34.9669 19.7043 34.2861C21.5295 30.5458 23.9426 27.3715 27.6323 25.158C30.0387 23.7144 33.1581 22.7595 36.5577 22.6337C40.3198 22.4946 44.2911 22.5817 48.0728 22.5817C51.91 22.5817 55.7471 22.5953 59.5841 22.5962C61.369 22.5968 63.4302 22.4028 64.9597 23.049C69.4519 24.9468 68.608 31.5871 68.5468 36.4612C68.4211 46.4471 66.8492 54.5609 59.9728 62.0005C59.0161 63.0353 58.2645 63.9591 57.1898 64.9784C51.5616 70.3169 47.0353 72.819 39.9003 76.2132C38.3767 76.9381 37.5259 77.7468 35.6189 76.9364C31.0122 74.9781 28.5992 73.669 24.34 71.1078C22.2063 69.8247 23.0232 69.8408 19.9093 69.8219C18.4729 69.8131 17.0351 69.8227 15.5993 69.84C14.9459 69.8479 14.6869 70.4329 15.1841 70.8497C15.5059 71.1194 15.8196 71.3713 15.9902 71.5161C19.843 74.7821 26.0727 78.5599 30.6079 80.5473C32.2085 81.2489 33.696 81.9297 35.3736 82.5618C36.7826 83.0928 36.5035 83.161 37.9582 82.6574C46.7684 79.6079 54.499 75.0371 61.0982 68.7114C61.4136 68.4092 61.6199 68.1818 61.9175 67.8668C62.2008 67.5675 62.4854 67.367 62.7575 67.0478C65.6531 63.6483 67.5583 61.4218 69.7296 57.2046C71.2607 54.2316 72.4258 50.9043 73.1633 47.2927C74.0744 42.8322 73.9041 33.3469 73.9865 28.002C74.018 25.9466 73.4829 24.2253 72.6831 22.7017C71.2398 19.9527 68.6599 17.6497 64.4882 17.3749C61.7799 17.1967 54.2095 17.3313 50.9785 17.3311C42.2707 17.3303 35.3343 16.4601 28.0831 21.5358C23.882 24.4762 21.1914 28.205 19.44 33.1433C19.0717 34.1825 18.121 37.3186 18.1803 38.379Z" fill="white"/>
<path fill-rule="evenodd" clip-rule="evenodd" d="M36.5926 39.8441C39.0059 39.1763 39.6839 42.7376 37.6039 43.3055C35.2235 43.9553 34.2011 40.5058 36.5926 39.8441ZM41.7428 33.2531C43.492 32.836 44.9768 34.0673 45.3036 35.4419C46.2208 39.2999 40.3393 40.5717 39.4417 36.8221C38.9913 34.94 40.2657 33.6057 41.7428 33.2531ZM22.8416 42.1744C23.2971 49.563 29.6744 55.6689 37.7612 55.2238C45.3096 54.8086 51.5094 48.4884 51.0639 40.5455C50.6485 33.1416 44.2068 27.0074 36.1188 27.4795C28.6102 27.918 22.3517 34.2267 22.8416 42.1744Z" fill="white"/>
</svg>
