<svg width="397" height="81" viewBox="0 0 397 81" fill="none" xmlns="http://www.w3.org/2000/svg">
<path d="M86 55.5129V26.4871L98.002 26.4871C100.804 26.4871 103.067 27.4208 104.791 29.2882C106.542 31.1556 107.418 33.5507 107.418 36.4736C107.418 39.4235 106.542 41.8457 104.791 43.7402C103.067 45.6076 100.804 46.5413 98.002 46.5413H93.0719V55.5129H86ZM93.0719 40.452H96.5473C97.7326 40.452 98.6352 40.0866 99.2548 39.3559C99.9014 38.6252 100.225 37.6644 100.225 36.4736C100.225 35.2828 99.9148 34.3356 99.2952 33.6319C98.6756 32.9283 97.8 32.5765 96.6685 32.5765H93.0719V40.452Z" fill="white"/>
<path d="M111.415 55.5129V26.4871L121.477 26.4871C124.036 26.4871 125.909 26.7172 127.094 27.1773C128.764 27.8268 130.071 28.8823 131.014 30.3437C131.957 31.7781 132.428 33.5372 132.428 35.6211C132.428 37.2449 132.051 38.8011 131.297 40.2896C130.543 41.751 129.478 42.8336 128.104 43.5372V43.6184C128.374 43.9702 128.738 44.5521 129.195 45.364L134.813 55.5129H126.932L121.8 45.7294L118.487 45.7294V55.5129H111.415ZM118.487 39.6401H121.558C122.716 39.6401 123.619 39.3288 124.265 38.7064C124.912 38.0839 125.235 37.2043 125.235 36.0677C125.235 34.4709 124.669 33.4425 123.538 32.9824C122.918 32.7118 122.029 32.5765 120.871 32.5765H118.487V39.6401Z" fill="white"/>
<path d="M136.122 40.8173C136.122 36.5954 137.536 33.0771 140.365 30.2625C143.193 27.4208 146.817 26 151.235 26C155.653 26 159.277 27.4208 162.106 30.2625C164.935 33.0771 166.349 36.5954 166.349 40.8173C166.349 45.1475 164.935 48.7605 162.106 51.6563C159.277 54.5521 155.653 56 151.235 56C146.817 56 143.193 54.5521 140.365 51.6563C137.536 48.7605 136.122 45.1475 136.122 40.8173ZM143.436 40.8173C143.436 43.3072 144.163 45.3775 145.618 47.0284C147.1 48.6793 148.972 49.5047 151.235 49.5047C153.498 49.5047 155.357 48.6793 156.812 47.0284C158.294 45.3775 159.035 43.3072 159.035 40.8173C159.035 38.4357 158.294 36.4601 156.812 34.8904C155.357 33.2936 153.498 32.4953 151.235 32.4953C148.972 32.4953 147.1 33.2936 145.618 34.8904C144.163 36.4601 143.436 38.4357 143.436 40.8173Z" fill="white"/>
<path d="M177.166 55.5129L166.942 26.4871H174.621L179.712 43.0095C179.874 43.5507 180.049 44.2138 180.238 44.9986C180.426 45.7835 180.574 46.4195 180.682 46.9066L180.803 47.6779H180.884C181.234 45.7835 181.598 44.2273 181.975 43.0095L187.148 26.4871H194.705L184.521 55.5129H177.166Z" fill="white"/>
<path d="M197.485 55.5129V26.4871H204.557V55.5129H197.485Z" fill="white"/>
<path d="M209.091 55.5129V51.0474L220.244 35.1746C220.622 34.6333 220.985 34.1461 221.336 33.7131C221.713 33.2801 221.996 32.9689 222.184 32.7794L222.467 32.5359V32.4547C221.847 32.5359 221.107 32.5765 220.244 32.5765H209.616V26.4871L231.438 26.4871V30.8714L220.244 46.8254C219.867 47.3667 219.49 47.8539 219.113 48.2869C218.763 48.7199 218.493 49.0176 218.305 49.18L218.022 49.4641V49.5453C218.642 49.4641 219.382 49.4235 220.244 49.4235L231.64 49.4235V55.5129L209.091 55.5129Z" fill="white"/>
<path d="M234.189 40.8173C234.189 36.5954 235.603 33.0771 238.432 30.2625C241.261 27.4208 244.885 26 249.303 26C253.721 26 257.345 27.4208 260.173 30.2625C263.002 33.0771 264.416 36.5954 264.416 40.8173C264.416 45.1475 263.002 48.7605 260.173 51.6563C257.345 54.5521 253.721 56 249.303 56C244.885 56 241.261 54.5521 238.432 51.6563C235.603 48.7605 234.189 45.1475 234.189 40.8173ZM241.503 40.8173C241.503 43.3072 242.231 45.3775 243.686 47.0284C245.167 48.6793 247.04 49.5047 249.303 49.5047C251.566 49.5047 253.425 48.6793 254.879 47.0284C256.361 45.3775 257.102 43.3072 257.102 40.8173C257.102 38.4357 256.361 36.4601 254.879 34.8904C253.425 33.2936 251.566 32.4953 249.303 32.4953C247.04 32.4953 245.167 33.2936 243.686 34.8904C242.231 36.4601 241.503 38.4357 241.503 40.8173Z" fill="white"/>
<path d="M268.915 55.5129V26.4871L278.977 26.4871C281.536 26.4871 283.409 26.7172 284.594 27.1773C286.264 27.8268 287.571 28.8823 288.514 30.3437C289.457 31.7781 289.928 33.5372 289.928 35.6211C289.928 37.2449 289.551 38.8011 288.797 40.2896C288.043 41.751 286.978 42.8336 285.604 43.5372V43.6184C285.874 43.9702 286.238 44.5521 286.696 45.364L292.313 55.5129H284.432L279.3 45.7294H275.987V55.5129H268.915ZM275.987 39.6401H279.058C280.216 39.6401 281.119 39.3288 281.765 38.7064C282.412 38.0839 282.735 37.2043 282.735 36.0677C282.735 34.4709 282.169 33.4425 281.038 32.9824C280.418 32.7118 279.529 32.5765 278.371 32.5765H275.987V39.6401Z" fill="white"/>
<path d="M301.46 55.5129V32.5765H292.691V26.4871L317.301 26.4871V32.5765H308.532V55.5129H301.46Z" fill="white"/>
<path d="M320.81 55.5129V26.4871H338.914V32.5765H327.882V37.8539H336.691V43.9432H327.882V49.4235H339.479V55.5129H320.81Z" fill="white"/>
<path d="M341.966 40.9391C341.966 36.6631 343.38 33.1042 346.209 30.2625C349.065 27.4208 352.702 26 357.12 26C359.14 26 361.107 26.3518 363.02 27.0555C364.933 27.7321 366.576 28.747 367.95 30.1001L364.677 35.4587C363.707 34.5927 362.562 33.889 361.242 33.3478C359.949 32.7794 358.682 32.4953 357.443 32.4953C354.749 32.4953 352.715 33.3072 351.341 34.931C349.967 36.5277 349.28 38.4763 349.28 40.7767C349.28 43.1313 349.981 45.1746 351.381 46.9066C352.809 48.6387 354.83 49.5047 357.443 49.5047C360.191 49.5047 362.75 48.3139 365.121 45.9323L368.758 51.1286C365.633 54.3762 361.754 56 357.12 56C352.54 56 348.862 54.5927 346.088 51.7781C343.34 48.9364 341.966 45.3234 341.966 40.9391Z" fill="white"/>
<path d="M372.349 55.5129V26.4871H379.421V38.0974H389.928V26.4871H397V55.5129H389.928V44.1461L379.421 44.1461V55.5129H372.349Z" fill="white"/>
<path fill-rule="evenodd" clip-rule="evenodd" d="M5.32879 16.5703C5.33733 14.7777 6.62112 13.1836 8.37494 12.7111C12.7926 11.521 20.4131 9.35974 21.9405 8.94976L34.3683 5.55704C36.3852 5.01956 35.7627 5.07769 38.4837 5.79651L67.8645 13.3878C68.543 13.5633 69.2855 13.7785 70.0251 13.9786C71.0425 14.2538 71.9991 13.4857 71.9995 12.4454L72 10.792C72.0003 9.99024 71.4235 9.28488 70.6372 9.08019C68.3606 8.4875 64.2256 7.30952 62.9657 6.96296C59.9963 6.1459 56.9683 5.3759 54.0156 4.53714C52.6752 4.15643 42.965 1.48276 38.3934 0.284917C36.8259 -0.125786 35.2441 -0.0801118 33.6799 0.342323L18.0345 4.56743C17.0011 4.85981 8.03869 7.33742 3.16696 8.63408C1.40664 9.10261 0.119618 10.7064 0.106896 12.5041C0.051208 20.3735 -0.0987961 39.3389 0.0994471 41.2675C1.02549 50.279 4.38072 59.8272 10.9129 62.5754C13.3005 63.5799 15.3199 63.4667 18.0663 63.5261C20.7518 63.584 23.426 63.6336 26.113 63.662C32.4203 63.7289 34.8354 63.8569 40.2845 61.6709C45.8624 59.4332 50.2854 54.7743 52.4713 49.6726C52.9953 48.4498 54.2773 44.9425 54.242 43.588C53.2743 45.6226 53.4625 47.0671 51.1293 50.7072C50.3826 51.8718 49.0395 53.4417 47.9382 54.3155C47.3001 54.8218 46.7893 55.2459 45.9923 55.7195C44.5992 56.5479 42.9966 57.2755 41.1829 57.736C37.1979 58.7475 32.4612 58.4516 28.1791 58.4825C25.8965 58.4991 23.6114 58.5097 21.3285 58.5128C19.2738 58.5154 16.6836 58.7232 14.8286 58.1814C11.4812 57.2039 9.08588 54.4837 7.73657 51.5566C4.94515 45.5015 5.22892 40.0571 5.24739 33.653L5.32879 16.5703Z" fill="white"/>
<path fill-rule="evenodd" clip-rule="evenodd" d="M17.689 37.4542C17.6973 36.8219 18.8485 34.1243 19.1717 33.4599C20.9477 29.8097 23.2955 26.712 26.8855 24.5518C29.2268 23.143 32.262 22.2111 35.5697 22.0883C39.23 21.9526 43.0941 22.0375 46.7735 22.0375C50.507 22.0375 54.2404 22.0509 57.9737 22.0517C59.7104 22.0523 61.7158 21.863 63.204 22.4936C67.5748 24.3457 66.7538 30.8259 66.6942 35.5826C66.5719 45.3279 65.0424 53.2462 58.3519 60.5065C57.4211 61.5164 56.6898 62.4179 55.6441 63.4127C50.168 68.6225 45.764 71.0643 38.8219 74.3768C37.3395 75.0841 36.5117 75.8734 34.6563 75.0825C30.1741 73.1714 27.8263 71.8939 23.6822 69.3943C21.6061 68.1421 22.401 68.1579 19.3712 68.1395C17.9736 68.1309 16.5747 68.1402 15.1777 68.1571C14.542 68.1648 14.2899 68.7358 14.7737 69.1425C15.0868 69.4057 15.392 69.6515 15.5581 69.7929C19.3067 72.9801 25.368 76.6669 29.7807 78.6064C31.338 79.2911 32.7853 79.9555 34.4175 80.5723C35.7884 81.0906 35.5169 81.1571 36.9323 80.6657C45.5043 77.6897 53.026 73.229 59.4469 67.0557C59.7537 66.7608 59.9545 66.5389 60.2441 66.2315C60.5197 65.9394 60.7966 65.7437 61.0613 65.4322C63.8787 62.1146 65.7324 59.9418 67.8451 55.8261C69.3347 52.9249 70.4683 49.6777 71.186 46.1531C72.0723 41.8001 71.9067 32.5434 71.9868 27.3272C72.0175 25.3214 71.4969 23.6416 70.7187 22.1546C69.3144 19.4719 66.8042 17.2244 62.7453 16.9563C60.1102 16.7823 52.7444 16.9137 49.6007 16.9135C41.1282 16.9127 34.3793 16.0635 27.3241 21.0168C23.2365 23.8864 20.6186 27.5253 18.9145 32.3446C18.5563 33.3588 17.6312 36.4193 17.689 37.4542Z" fill="white"/>
<path fill-rule="evenodd" clip-rule="evenodd" d="M35.6036 38.884C37.9516 38.2323 38.6114 41.7077 36.5876 42.262C34.2715 42.8961 33.2768 39.5298 35.6036 38.884ZM40.6146 32.4519C42.3166 32.0448 43.7612 33.2464 44.0792 34.5879C44.9716 38.3529 39.2491 39.594 38.3757 35.9348C37.9375 34.0981 39.1774 32.7959 40.6146 32.4519ZM22.2242 41.1582C22.6674 48.3687 28.8724 54.3275 36.7406 53.8931C44.085 53.4879 50.1173 47.32 49.6838 39.5685C49.2797 32.343 43.012 26.3566 35.1426 26.8173C27.837 27.2453 21.7476 33.402 22.2242 41.1582Z" fill="white"/>
</svg>
