<svg width="88" height="99" viewBox="0 0 88 99" fill="none" xmlns="http://www.w3.org/2000/svg">
<path fill-rule="evenodd" clip-rule="evenodd" d="M6.51296 20.1268C6.5234 17.9495 8.09248 16.0132 10.236 15.4393C15.6354 13.9938 24.9493 11.3686 26.8162 10.8706L42.0057 6.74975C44.4708 6.09691 43.7099 6.16752 47.0356 7.04062L82.9455 16.2612C83.7748 16.4744 84.6822 16.7358 85.5862 16.9788C86.8298 17.3131 87.9989 16.3801 87.9993 15.1166L88 13.1083C88.0003 12.1345 87.2954 11.2777 86.3344 11.0291C83.5518 10.3092 78.498 8.87837 76.958 8.45743C73.3289 7.46499 69.6279 6.52974 66.019 5.51095C64.3809 5.04853 52.5127 1.801 46.9252 0.346069C45.0094 -0.152783 43.0762 -0.0973062 41.1643 0.415796L22.0422 5.54774C20.7791 5.90287 9.82506 8.91226 3.87073 10.4872C1.71923 11.0563 0.1462 13.0043 0.130651 15.1879C0.0625876 24.7463 -0.120751 47.7822 0.121546 50.1248C1.25338 61.0705 5.35421 72.6679 13.3379 76.006C16.2562 77.2261 18.7243 77.0887 22.081 77.1608C25.3634 77.2311 28.6318 77.2913 31.9159 77.3258C39.6248 77.4071 42.5766 77.5625 49.2366 74.9074C56.054 72.1894 61.46 66.5306 64.1316 60.3338C64.772 58.8487 66.3389 54.5886 66.2958 52.9433C65.113 55.4147 65.3431 57.1691 62.4913 61.5905C61.5787 63.0051 59.9372 64.9119 58.5912 65.9732C57.8113 66.5883 57.1869 67.1034 56.2128 67.6787C54.5102 68.6848 52.5514 69.5686 50.3347 70.1279C45.4641 71.3565 39.6748 70.9971 34.4411 71.0346C31.6512 71.0547 28.8583 71.0677 26.0682 71.0714C23.5569 71.0746 20.391 71.327 18.1238 70.6689C14.0326 69.4816 11.105 66.1776 9.45581 62.6223C6.04407 55.2675 6.3909 48.6546 6.41348 40.8759L6.51296 20.1268Z" fill="#304FFF"/>
<path fill-rule="evenodd" clip-rule="evenodd" d="M21.6198 45.493C21.63 44.7251 23.0371 41.4484 23.4321 40.6415C25.6027 36.2078 28.4722 32.4452 32.86 29.8214C35.7217 28.1102 39.4313 26.9783 43.474 26.8291C47.9478 26.6643 52.6705 26.7675 57.1677 26.7675C61.7308 26.7675 66.2939 26.7836 70.8567 26.7846C72.9793 26.7854 75.4305 26.5554 77.2494 27.3214C82.5914 29.571 81.5879 37.4421 81.5151 43.2197C81.3657 55.0566 79.4963 64.6745 71.319 73.493C70.1813 74.7197 69.2875 75.8148 68.0095 77.023C61.3164 83.351 55.9338 86.3169 47.449 90.3403C45.6372 91.1995 44.6254 92.1581 42.3577 91.1975C36.8794 88.8763 34.0099 87.3245 28.9449 84.2885C26.4075 82.7675 27.379 82.7867 23.676 82.7643C21.9677 82.7539 20.2579 82.7652 18.5505 82.7858C17.7735 82.7951 17.4655 83.4886 18.0568 83.9826C18.4394 84.3023 18.8125 84.6009 19.0154 84.7725C23.597 88.6438 31.0053 93.122 36.3986 95.4778C38.302 96.3094 40.0709 97.1163 42.0659 97.8656C43.7414 98.4951 43.4096 98.5759 45.1394 97.979C55.6164 94.3643 64.8096 88.9461 72.6573 81.4479C73.0323 81.0897 73.2777 80.8202 73.6316 80.4468C73.9686 80.092 74.307 79.8544 74.6305 79.476C78.074 75.4463 80.3397 72.8071 82.9217 67.8082C84.7424 64.2842 86.128 60.34 87.0051 56.059C88.0884 50.7717 87.886 39.5282 87.9839 33.1925C88.0215 30.7561 87.3851 28.7158 86.434 26.9097C84.7176 23.6512 81.6496 20.9213 76.6887 20.5956C73.468 20.3843 64.4653 20.5439 60.623 20.5436C50.2678 20.5426 42.0192 19.5112 33.3961 25.5277C28.4002 29.0131 25.2005 33.4331 23.1178 39.2868C22.6799 40.5186 21.5493 44.236 21.6198 45.493Z" fill="#304FFF"/>
<path fill-rule="evenodd" clip-rule="evenodd" d="M43.5155 47.2297C46.3853 46.4382 47.1917 50.6595 44.7182 51.3327C41.8874 52.1029 40.6716 48.0141 43.5155 47.2297ZM49.64 39.417C51.7203 38.9226 53.4859 40.3821 53.8746 42.0115C54.9653 46.5846 47.9711 48.0921 46.9037 43.6476C46.3681 41.4166 47.8835 39.8349 49.64 39.417ZM27.163 49.992C27.7046 58.7501 35.2885 65.9878 44.9052 65.4603C53.8817 64.968 61.2544 57.4763 60.7247 48.0611C60.2307 39.2848 52.5702 32.0135 42.952 32.5732C34.023 33.093 26.5804 40.5711 27.163 49.992Z" fill="#304FFF"/>
</svg>
